<svg xmlns="http://www.w3.org/2000/svg" width="204.189" height="55.481" viewBox="0 0 204.189 55.481"><defs><style>.a{fill:#003f66;}.b{fill:#0078c6;}.c{fill:#00047f;opacity:0.5;}</style></defs><g transform="translate(102.665 1122.796)"><g transform="translate(-102.665 -1122.796)"><g transform="translate(0 0)"><g transform="translate(3.16 0)"><path class="a" d="M-52.543-1038.175l-7.984-4.331v-1.554l-23.951.2,20.114,12.284Z" transform="translate(84.478 1058.609)"/><path class="b" d="M34.381-889.988l.187,14.161H59.2Z" transform="translate(-13.729 931.307)"/><path class="b" d="M-52.137-1113.317l11.23-14.479H-84.478v14.75Z" transform="translate(84.478 1127.796)"/><path class="b" d="M-54.106-995.309l26.658-.27v-14.615Z" transform="translate(59.383 1030.627)"/><path class="a" d="M-38.814-926.081l.27,20.433-15.561-20.163Z" transform="translate(59.383 961.129)"/></g><path class="c" d="M-102.665-1127.8" transform="translate(102.665 1127.796)"/><g transform="translate(41.97 15.696)"><path class="b" d="M138.892-1006.924l3.989-18.481a37.553,37.553,0,0,0,.407-10.339l5.7-1.14.244,3.42s4.777-4.181,10.91-3.99c4.314.135,8.06,1.816,8.06,7.572,0,1.376-3.419,22.878-3.419,22.878l-6.752.083s3.984-16.04,4.147-21.007c.082-2.5-2.277-5.267-5.129-4.885-3.215.431-7.335,1.748-8.3,6.595-1.3,6.513-2.85,19.377-2.85,19.377Z" transform="translate(-138.892 1037.461)"/></g><g transform="translate(76.246 4.874)"><path class="a" d="M343.818-1099.143h6.676l-3.748,18.449,1.446-.072c1.314-1.814,16.875-18.866,16.875-18.866l7.894-.113-16.011,17.6,10.26,23.96h-7.945l-6.82-18.035-2.687-.081-4.966,6.187-2.035,11.724-6.595.245Z" transform="translate(-336.162 1099.745)"/></g><g transform="translate(174.939 4.182)"><path class="a" d="M904.18-1061.471l8.383-42.255h5.479l-1.832,14.655c.366,0,3.664-2.931,8.182-3.053,4.19-.114,9.037,1.759,9.037,7.327,0,1.931-.052,1.935-3.037,23.326h-7.257l3.822-17.1c.188-1.189,1.464-7.91-4.009-8.113-5.15-.191-7.958,2.862-8.447,4.816l-3.064,20.4H904.18Z" transform="translate(-904.18 1103.726)"/></g><g transform="translate(147.89 15.784)"><path class="a" d="M751.679-1014.484a6.962,6.962,0,0,0,6.3,3.551c2.941.008,6.158-2.037,6.158-4.039,0-1.94-2.859-3.932-5.862-5.5-3.5-1.814-5.984-3.091-5.984-6.595,0-5.881,3.8-9.892,10.991-9.892a25.645,25.645,0,0,1,9.4,2.2l-2.564,5.5c-1.126-.626-3.725-2.931-6.228-2.931-2.752,0-5.129,1.721-5.129,3.786,0,1.689,2.2,3.082,4.763,4.4,3.316,1.814,6.717,3.419,6.714,8.071,0,6.694-5.867,10-13.186,10a15.66,15.66,0,0,1-8.549-2.809Z" transform="translate(-748.504 1036.954)"/></g><g transform="translate(114.796 15.784)"><path class="a" d="M578.913-1006.79c-.766-1.149-.779-2.351-1.465-2.809-1.1-.733-1.576.258-2.565,1.1-2.443,2.076-5.222,2.424-8.548,2.32-3.908-.122-8.3-3.15-8.3-9.281,0-10.385,5.094-21.493,19.3-21.493a28.674,28.674,0,0,1,8.67,1.343l-2.931,15.143c-1.832,6.839.122,11.235.733,13.555Zm-2.2-25.89c-2.188.049-4.59,1.456-6.688,3.57-3.17,3.2-5.647,8.005-5.647,12.184,0,3.19,1.87,5.858,5.059,5.8,3.245-.06,5.237-1.053,8.374-8.852C577.814-1019.979,582.087-1032.8,576.715-1032.68Z" transform="translate(-558.03 1036.954)"/></g></g></g></g></svg>